<svg xmlns="http://www.w3.org/2000/svg" width="84" height="80" fill="none" viewBox="0 0 84 80"><g fill="#83B3D3" filter="url(#a)"><path d="M34.1 65h16V41.2h-16V65Zm3-20.9h10v18h-10v-18Z"/><path d="m77.4 39.3 2.1-2.1-10-9.9V0H55.7v13.6L41.9 0 4.5 37.2l2.1 2.1 7.8-7.8v37.6h-4V72h64.2v-2.9h-5.1V31.5l7.9 7.8ZM66.5 69.1H17.4V28.5L41.9 4.1l24.6 24.4v40.6Zm0-44.7-7.9-7.9V2.9h8v21.5Z"/><path d="M34.3 27.1c0 4.3 3.5 7.7 7.8 7.7s7.8-3.5 7.8-7.7c0-4.3-3.5-7.7-7.8-7.7a7.7 7.7 0 0 0-7.8 7.7Zm7.9-5a5 5 0 0 1 5 4.9 5 5 0 0 1-5 4.9 5 5 0 0 1-5-4.9 5 5 0 0 1 5-4.9ZM24.5 41.2h-3v3.9h3v-3.9ZM30.4 41.2h-3v3.9h3v-3.9ZM24.5 47.2h-3v3.9h3v-3.9ZM30.4 47.2h-3v3.9h3v-3.9ZM56.5 41.2h-3v3.9h3v-3.9ZM62.4 41.2h-3v3.9h3v-3.9ZM56.5 47.2h-3v3.9h3v-3.9ZM62.4 47.2h-3v3.9h3v-3.9Z"/></g><defs><filter id="a" width="83" height="80" x=".5" y="0" color-interpolation-filters="sRGB" filterUnits="userSpaceOnUse"><feFlood flood-opacity="0" result="BackgroundImageFix"/><feColorMatrix in="SourceAlpha" result="hardAlpha" values="0 0 0 0 0 0 0 0 0 0 0 0 0 0 0 0 0 0 127 0"/><feOffset dy="4"/><feGaussianBlur stdDeviation="2"/><feComposite in2="hardAlpha" operator="out"/><feColorMatrix values="0 0 0 0 0 0 0 0 0 0 0 0 0 0 0 0 0 0 0.25 0"/><feBlend in2="BackgroundImageFix" result="effect1_dropShadow_112_133"/><feBlend in="SourceGraphic" in2="effect1_dropShadow_112_133" result="shape"/></filter></defs></svg>